<svg width="9" height="9" viewBox="0 0 9 9" fill="none" xmlns="http://www.w3.org/2000/svg">
<path d="M8.73267 7.48515C9.08911 7.84158 9.08911 8.37624 8.73267 8.73267C8.55446 8.91089 8.33168 9 8.10891 9C7.88614 9 7.66337 8.91089 7.48515 8.73267L4.5 5.74752L1.51485 8.73267C1.33663 8.91089 1.11386 9 0.891089 9C0.668317 9 0.445545 8.91089 0.267327 8.73267C-0.0891089 8.37624 -0.0891089 7.84158 0.267327 7.48515L3.25248 4.5L0.267327 1.51485C-0.0891089 1.15842 -0.0891089 0.623762 0.267327 0.267327C0.623762 -0.0891089 1.15842 -0.0891089 1.51485 0.267327L4.5 3.25248L7.48515 0.267327C7.84158 -0.0891089 8.37624 -0.0891089 8.73267 0.267327C9.08911 0.623762 9.08911 1.15842 8.73267 1.51485L5.74752 4.5L8.73267 7.48515Z" fill="white" fill-opacity="0.87"/>
</svg>
